<svg width="70" height="70" viewBox="0 0 70 70" fill="none" xmlns="http://www.w3.org/2000/svg">
<g clip-path="url(#clip0)">
<path d="M45.7949 18.8405H12.2729C11.7042 18.8405 11.2432 19.3015 11.2432 19.8702C11.2432 20.439 11.7042 20.9 12.2729 20.9H45.795C46.3637 20.9 46.8248 20.439 46.8248 19.8702C46.8248 19.3015 46.3636 18.8405 45.7949 18.8405Z" fill="#84BD00"/>
<path d="M12.2729 13.7567H29.0338C29.6026 13.7567 30.0636 13.2957 30.0636 12.727C30.0636 12.1582 29.6026 11.6972 29.0338 11.6972H12.2729C11.7042 11.6972 11.2432 12.1582 11.2432 12.727C11.2432 13.2959 11.7042 13.7567 12.2729 13.7567Z" fill="#84BD00"/>
<path d="M45.7949 25.1695H12.2729C11.7042 25.1695 11.2432 25.6305 11.2432 26.1993C11.2432 26.768 11.7042 27.2291 12.2729 27.2291H45.795C46.3637 27.2291 46.8248 26.768 46.8248 26.1993C46.8246 25.6305 46.3636 25.1695 45.7949 25.1695Z" fill="#84BD00"/>
<path d="M19.9086 62.8452H9.18073C7.41993 62.8452 5.98725 61.4127 5.98725 59.6519V5.25287C5.98725 3.49207 7.41993 2.05939 9.18073 2.05939H40.0868C40.1866 2.05939 40.2849 2.06855 40.3821 2.08168V8.50391C40.3821 11.4004 42.7386 13.7568 45.635 13.7568H52.0571C52.0704 13.8541 52.0794 13.9524 52.0794 14.0522V31.5879C52.0794 32.1567 52.5404 32.6177 53.1091 32.6177C53.6779 32.6177 54.1389 32.1567 54.1389 31.5879V14.0524C54.1389 12.9228 53.699 11.8608 52.9002 11.0619L43.077 1.23867C42.2783 0.439961 41.2164 0 40.0868 0H9.18073C6.2842 0 3.92786 2.35648 3.92786 5.25287V59.6519C3.92786 62.5483 6.28434 64.9046 9.18073 64.9046H19.9086C20.4774 64.9046 20.9384 64.4436 20.9384 63.8749C20.9384 63.3061 20.4774 62.8452 19.9086 62.8452ZM50.6232 11.6974H45.6351C43.8743 11.6974 42.4417 10.2647 42.4417 8.50391V3.51586L50.6232 11.6974Z" fill="#84BD00"/>
<path d="M65.7557 50.4123L57.0306 35.6849C56.3947 34.6111 55.0108 34.2562 53.9365 34.8926L51.8142 36.15C50.1669 37.1259 49.4706 39.1008 50.0362 40.851C49.3211 41.1101 48.5372 41.106 47.8153 40.8269C46.1397 40.2997 44.8658 39.2392 42.7618 39.7713C39.1893 40.6809 39.2979 40.6354 38.9747 40.7461C36.8829 39.5552 35.6255 39.2008 33.4049 40.0598L31.4255 40.825C30.5091 41.1791 29.4993 41.0952 28.6524 40.5934L28.1122 40.275C28.3758 38.6956 27.6754 37.0289 26.1923 36.1503C26.1923 36.1503 26.1923 36.1503 26.1922 36.1502L24.07 34.8929C22.9987 34.2584 21.6107 34.6136 20.9761 35.6849L12.2507 50.4124C11.6148 51.4859 11.9686 52.8702 13.0427 53.5063L15.1648 54.7636C15.807 55.1441 16.5127 55.325 17.21 55.325C17.9875 55.325 18.7541 55.0997 19.4095 54.6753L19.8518 54.9363L18.918 56.2369C17.8053 57.787 18.1588 59.9425 19.7092 61.0554C20.4262 61.57 21.3269 61.805 22.2584 61.6588C22.4061 62.5227 22.8795 63.3312 23.6459 63.8817C24.3657 64.3985 25.2623 64.6338 26.1954 64.4868C26.3436 65.35 26.8167 66.1579 27.5827 66.7079C28.6122 67.4469 29.8922 67.5323 30.9587 67.0768C31.1921 67.683 31.5977 68.2304 32.1636 68.6367C33.6413 69.6973 35.6768 69.4207 36.8249 68.0467L39.3064 69.5167C40.9474 70.4891 43.0648 69.9487 44.0378 68.3057C44.2866 67.8857 44.441 67.428 44.4974 66.9576L44.503 66.961C46.1416 67.9314 48.2638 67.3881 49.2345 65.7499C49.5156 65.2754 49.6696 64.7606 49.7071 64.2448C51.1514 64.6079 52.7254 64.0013 53.5225 62.656C53.7841 62.2147 53.9357 61.7379 53.9856 61.2582C55.5335 61.8656 57.3427 61.2785 58.2169 59.8031C58.6871 59.0094 58.8201 58.0803 58.5914 57.1865C58.4605 56.6752 58.2199 56.2111 57.8896 55.8191L59.2573 55.02C60.4144 55.4949 61.7348 55.4189 62.8414 54.7635L64.9633 53.5062C66.0373 52.8705 66.3921 51.4865 65.7557 50.4123ZM16.2146 52.9919L14.0924 51.7345C13.9981 51.6786 13.9668 51.5563 14.0226 51.462L22.7479 36.7342C22.8041 36.6395 22.9268 36.6087 23.0206 36.6645L25.1426 37.9216C26.0855 38.4804 26.3806 39.6898 25.832 40.6155L18.9085 52.3023C18.3559 53.2352 17.1475 53.5444 16.2146 52.9919ZM20.9102 59.3824C20.2848 58.9334 20.1418 58.0636 20.5911 57.438L21.9636 55.5261C22.4008 54.917 23.2721 54.7504 23.908 55.2069C24.5321 55.6549 24.6753 56.527 24.2274 57.1511L22.8547 59.063C22.4067 59.6874 21.534 59.8301 20.9102 59.3824ZM24.847 62.2088C24.2229 61.7606 24.0797 60.8882 24.5277 60.2642L25.9003 58.3525C25.9003 58.3525 25.9003 58.3525 25.9003 58.3523C25.9003 58.3523 25.9003 58.3522 25.9004 58.3522L27.4151 56.2424C27.6322 55.9401 27.9539 55.7402 28.3211 55.68C28.3974 55.6675 28.4739 55.6613 28.5497 55.6613C28.8388 55.6613 29.12 55.7513 29.3595 55.9231C29.6617 56.1402 29.8616 56.4618 29.9217 56.829C29.982 57.1964 29.8957 57.5651 29.6786 57.8674L26.7913 61.8894C26.3426 62.5149 25.4726 62.658 24.847 62.2088ZM28.7838 65.0349C28.16 64.587 28.0167 63.7153 28.4639 63.0913C28.464 63.091 28.4643 63.0907 28.4644 63.0905L31.3518 59.0686C31.7995 58.4446 32.6724 58.3014 33.2962 58.7492C33.9203 59.1973 34.0635 60.0695 33.6154 60.6937L32.3326 62.4807C32.3326 62.4807 32.3326 62.4807 32.3325 62.4808L30.7281 64.7156C30.2801 65.3398 29.4081 65.4832 28.7838 65.0349ZM33.3647 66.9637C32.741 66.5158 32.5976 65.6445 33.0445 65.0204L34.0055 63.6819C34.4534 63.0577 35.3261 62.9149 35.9499 63.3627C36.5739 63.8106 36.7172 64.683 36.2692 65.3071L35.309 66.6443C34.8611 67.2686 33.9886 67.4119 33.3647 66.9637ZM56.4454 58.7535C56.0536 59.4148 55.1972 59.6341 54.5357 59.2424C53.4157 58.5789 46.191 54.2986 45.4207 53.8423C44.9312 53.5524 44.2997 53.7139 44.0099 54.2032C43.7201 54.6925 43.8815 55.3242 44.3708 55.614L51.2619 59.6966L51.262 59.6967C51.9236 60.0885 52.1443 60.9423 51.7509 61.6065C51.3589 62.2681 50.5021 62.487 49.841 62.0956C47.2922 60.5856 45.2227 59.3596 42.9462 58.0108C42.4566 57.721 41.8253 57.8824 41.5354 58.3718C41.2456 58.8611 41.407 59.4927 41.8964 59.7826L46.9738 62.7906L46.9749 62.7913C47.6369 63.1844 47.8554 64.0378 47.4629 64.7006C47.0709 65.3622 46.2144 65.5814 45.5528 65.1895L42.8278 63.5753C42.8276 63.5751 42.8271 63.575 42.8269 63.5747C42.8266 63.5746 42.8263 63.5745 42.826 63.5743L40.8375 62.3961C40.348 62.1061 39.7165 62.2676 39.4267 62.757C39.1368 63.2463 39.2983 63.878 39.7876 64.1678L41.7766 65.3462C41.7769 65.3463 41.7771 65.3466 41.7774 65.3467C42.439 65.7386 42.6597 66.5923 42.2663 67.2564C41.8744 67.918 41.0178 68.1372 40.3562 67.7453L38.036 66.3709C39.0306 64.8361 38.6523 62.7678 37.151 61.6902C36.7101 61.3738 36.2191 61.1768 35.7169 61.0922C36.2496 59.668 35.7904 58.0052 34.4971 57.0769C33.7315 56.527 32.8148 56.3371 31.9497 56.4727C31.7957 55.5724 31.3034 54.7838 30.5606 54.2508C29.1636 53.2482 27.2651 53.4409 26.0925 54.6272C25.8542 54.2087 25.5252 53.8332 25.1091 53.5345C23.9482 52.7014 22.441 52.6936 21.2918 53.3953L20.8199 53.1168L27.2963 42.1849L27.6046 42.3668C28.9663 43.1734 30.628 43.3416 32.168 42.746L34.1474 41.9808C35.2801 41.543 35.9048 41.5145 37.0252 42.0432C36.2921 42.8668 35.8569 43.9481 35.8569 45.1135V49.6792C35.8569 50.8919 36.8428 51.8791 38.0546 51.8799H38.0576C39.273 51.8799 40.416 51.4068 41.2758 50.5475C41.777 50.0465 42.147 49.4494 42.3687 48.7975C43.6983 49.5848 54.6833 56.0898 55.9568 56.8443C56.2771 57.0341 56.5044 57.3372 56.5966 57.6979C56.6889 58.0581 56.6352 58.4331 56.4454 58.7535ZM63.9141 51.7345L61.7918 52.9919C60.8588 53.5442 59.6505 53.2348 59.0982 52.3024L55.853 46.8248C55.563 46.3355 54.9311 46.174 54.4422 46.4636C53.9529 46.7534 53.7913 47.385 54.081 47.8744L57.3262 53.3521C57.3873 53.4552 57.4536 53.5532 57.5222 53.6488L56.62 54.1759C56.4376 54.2839 56.2622 54.4028 56.0945 54.532L42.105 46.2475C41.4196 45.8419 40.5506 46.3364 40.5506 47.1335C40.5398 47.195 40.657 48.2535 39.8199 49.0903C39.349 49.5608 38.7231 49.82 38.0574 49.82C38.0569 49.82 38.0563 49.82 38.0558 49.82C37.9788 49.82 37.9162 49.7566 37.9162 49.6786V45.1129C37.9162 43.9202 38.7368 42.9139 39.8465 42.633L43.2667 41.7674C44.5077 41.4538 45.2092 42.1164 47.0673 42.7454C48.3573 43.2444 49.7599 43.2136 51.0048 42.6819L51.6264 43.7311C51.9163 44.2207 52.548 44.382 53.0372 44.0923C53.5265 43.8025 53.6881 43.1708 53.3984 42.6815L52.1742 40.6153C51.6203 39.6804 51.9289 38.4756 52.8637 37.9215L54.9858 36.6644C55.0785 36.6093 55.2011 36.6374 55.2586 36.7342L63.9837 51.4617C64.04 51.5567 64.009 51.6783 63.9141 51.7345Z" fill="#84BD00"/>
</g>
<defs>
<clipPath id="clip0">
<rect width="70" height="70" fill="white"/>
</clipPath>
</defs>
</svg>
