<svg width="19" height="19" viewBox="0 0 19 19" fill="none" xmlns="http://www.w3.org/2000/svg">
<path d="M16.0744 0.5H2.92555C1.58598 0.5 0.5 1.58594 0.5 2.92555V16.0745C0.5 17.4141 1.58594 18.5 2.92555 18.5H9.4105L9.42156 12.0678H7.75046C7.53329 12.0678 7.35703 11.8922 7.35619 11.675L7.34818 9.60165C7.34734 9.38329 7.52413 9.20584 7.74249 9.20584H9.41055V7.20243C9.41055 4.87749 10.8305 3.61154 12.9045 3.61154H14.6063C14.8241 3.61154 15.0007 3.78807 15.0007 4.00586V5.75414C15.0007 5.97184 14.8242 6.14832 14.6066 6.14846L13.5621 6.14894C12.4342 6.14894 12.2158 6.68491 12.2158 7.47147V9.20588H14.6942C14.9304 9.20588 15.1136 9.41209 15.0858 9.64661L14.84 11.72C14.8165 11.9184 14.6483 12.0679 14.4485 12.0679H12.2269L12.2158 18.5001H16.0745C17.4141 18.5001 18.5 17.4142 18.5 16.0746V2.92555C18.5 1.58594 17.414 0.5 16.0744 0.5Z" fill="white"/>
</svg>
