<svg width="22" height="22" viewBox="0 0 22 22" fill="none" xmlns="http://www.w3.org/2000/svg">
<path d="M21.0833 10.0833H0.916667C0.410406 10.0833 0 10.4937 0 10.9999C0 11.5062 0.410406 11.9166 0.916667 11.9166H21.0833C21.5896 11.9166 22 11.5062 22 10.9999C22 10.4937 21.5896 10.0833 21.0833 10.0833Z" fill="#0043A5"/>
<path d="M21.0833 3.66675H0.916667C0.410406 3.66675 0 4.07715 0 4.58341C0 5.08968 0.410406 5.50008 0.916667 5.50008H21.0833C21.5896 5.50008 22 5.08968 22 4.58341C22 4.07715 21.5896 3.66675 21.0833 3.66675Z" fill="#0043A5"/>
<path d="M21.0833 16.5H0.916667C0.410406 16.5 0 16.9104 0 17.4167C0 17.9229 0.410406 18.3333 0.916667 18.3333H21.0833C21.5896 18.3333 22 17.9229 22 17.4167C22 16.9104 21.5896 16.5 21.0833 16.5Z" fill="#0043A5"/>
</svg>
