<svg width="19" height="19" viewBox="0 0 19 19" fill="none" xmlns="http://www.w3.org/2000/svg">
<path d="M16.8718 0.5H2.12825C1.229 0.5 0.5 1.229 0.5 2.12825V16.8717C0.5 17.771 1.229 18.5 2.12825 18.5H16.8717C17.771 18.5 18.5 17.771 18.5 16.8717V2.12825C18.5 1.229 17.771 0.5 16.8718 0.5ZM6.06996 16.0424C6.06996 16.3041 5.85783 16.5162 5.59612 16.5162H3.57908C3.31738 16.5162 3.10524 16.3041 3.10524 16.0424V7.58705C3.10524 7.32535 3.31738 7.11321 3.57908 7.11321H5.59612C5.85783 7.11321 6.06996 7.32535 6.06996 7.58705V16.0424ZM4.5876 6.31617C3.52932 6.31617 2.6714 5.45825 2.6714 4.39997C2.6714 3.34169 3.52932 2.48377 4.5876 2.48377C5.64588 2.48377 6.5038 3.34169 6.5038 4.39997C6.5038 5.45825 5.64593 6.31617 4.5876 6.31617ZM16.6109 16.0806C16.6109 16.3212 16.4159 16.5162 16.1753 16.5162H14.0108C13.7702 16.5162 13.5752 16.3212 13.5752 16.0806V12.1145C13.5752 11.5229 13.7487 9.52191 12.029 9.52191C10.6951 9.52191 10.4245 10.8915 10.3702 11.5062V16.0806C10.3702 16.3212 10.1751 16.5162 9.9345 16.5162H7.84113C7.60053 16.5162 7.40545 16.3212 7.40545 16.0806V7.54888C7.40545 7.30829 7.60053 7.11321 7.84113 7.11321H9.9345C10.1751 7.11321 10.3702 7.30829 10.3702 7.54888V8.28655C10.8648 7.54427 11.5999 6.97133 13.165 6.97133C16.6308 6.97133 16.6109 10.2093 16.6109 11.9883V16.0806Z" fill="white"/>
</svg>
