<svg width="70" height="70" viewBox="0 0 70 70" fill="none" xmlns="http://www.w3.org/2000/svg">
<g clip-path="url(#clip0)">
<path d="M62.4588 61.3823L53.6035 46.0445C55.0723 44.8077 56.0873 43.0487 56.3584 41.0554C56.5426 39.7001 57.2397 38.4925 58.3213 37.6553C61.1252 35.4849 62.1455 31.6772 60.8026 28.3954C60.2845 27.1295 60.2845 25.7351 60.8026 24.4693C62.1455 21.1876 61.1252 17.3799 58.3213 15.2095C57.2397 14.3722 56.5425 13.1647 56.3584 11.8093C55.8805 8.29592 53.093 5.50834 49.5796 5.03071C48.2243 4.84639 47.0168 4.14929 46.1797 3.06768C44.0091 0.263696 40.2017 -0.756518 36.9197 0.586402C35.6537 1.10451 34.2594 1.10451 32.9936 0.586402C29.7121 -0.756654 25.9042 0.263696 23.7337 3.06768C22.8965 4.14929 21.6889 4.84639 20.3336 5.03071C16.8201 5.50848 14.0326 8.29592 13.555 11.8094C13.3707 13.1648 12.6736 14.3723 11.592 15.2096C8.78798 17.3801 7.76776 21.1879 9.11068 24.4695C9.62879 25.7353 9.62879 27.1297 9.11068 28.3955C7.76763 31.6772 8.78798 35.4849 11.592 37.6554C12.6736 38.4927 13.3707 39.7002 13.555 41.0554C13.8296 43.0749 14.8682 44.8535 16.3681 46.0925L7.5405 61.3823C7.26402 61.8613 7.30312 62.4597 7.63991 62.8984C7.97657 63.337 8.54417 63.53 9.07869 63.3868L16.7732 61.325L18.826 68.9864C18.9692 69.5207 19.42 69.916 19.9684 69.9882C20.0282 69.9961 20.088 69.9999 20.1472 69.9999C20.631 69.9999 21.0847 69.7429 21.331 69.3162L30.8565 52.8176C31.5788 52.7398 32.298 52.563 32.9935 52.2783C34.2594 51.7602 35.6539 51.7602 36.9195 52.2783C37.6447 52.5752 38.3956 52.7561 39.1489 52.8283L48.6682 69.3162C48.9146 69.743 49.3682 69.9999 49.852 69.9999C49.9113 69.9999 49.9709 69.9961 50.031 69.9882C50.5793 69.916 51.0301 69.5207 51.1733 68.9864L53.2263 61.325L60.9208 63.3868C61.4546 63.53 62.0227 63.3373 62.3594 62.8984C62.696 62.4597 62.7353 61.8613 62.4588 61.3823ZM20.6131 65.09L19.0607 59.2965C18.9667 58.9462 18.7377 58.6475 18.4236 58.4662C18.1095 58.2849 17.7365 58.2358 17.386 58.3296L11.5594 59.8908L18.7441 47.4465C19.2521 47.6282 19.7839 47.7594 20.3334 47.8342C21.6888 48.0185 22.8964 48.7156 23.7336 49.7972C24.7962 51.1699 26.2515 52.1141 27.8452 52.5637L20.6131 65.09ZM31.9575 49.7474C29.8095 50.6267 27.317 49.9587 25.8961 48.1234C24.6171 46.471 22.7723 45.4058 20.7018 45.1244C18.402 44.8117 16.5772 42.987 16.2646 40.6871C15.9831 38.6166 14.918 36.7719 13.2657 35.4927C11.4302 34.072 10.7624 31.5794 11.6415 29.4313C12.433 27.4974 12.433 25.3674 11.6415 23.4335C10.7624 21.2855 11.4302 18.7929 13.2657 17.3721C14.918 16.0931 15.9831 14.2485 16.2646 12.1778C16.5773 9.87799 18.402 8.0532 20.7018 7.74048C22.7723 7.45907 24.6171 6.39401 25.8961 4.74164C26.8982 3.44713 28.4328 2.73349 30.0042 2.73349C30.661 2.73349 31.3243 2.85833 31.9574 3.11745C33.8914 3.9089 36.0216 3.9089 37.9553 3.11745C40.1032 2.23822 42.596 2.90619 44.0167 4.74164C45.2958 6.39401 47.1404 7.45907 49.2108 7.74048C51.5106 8.0532 53.3354 9.87786 53.6481 12.1778C53.9297 14.2485 54.9947 16.0931 56.6471 17.3721C58.4826 18.7929 59.1504 21.2854 58.2713 23.4335C57.4798 25.3674 57.4798 27.4974 58.2713 29.4313C59.1504 31.5794 58.4824 34.072 56.6471 35.4927C54.9947 36.7718 53.9297 38.6164 53.6481 40.6869C53.3354 42.9869 51.5106 44.8117 49.2109 45.1243C47.1403 45.4057 45.2957 46.4707 44.0166 48.1232C42.5957 49.9588 40.1032 50.6265 37.9553 49.7473C36.0214 48.956 33.8916 48.956 31.9575 49.7474ZM52.6131 58.3296C51.8834 58.1339 51.134 58.5671 50.9385 59.2965L49.386 65.09L42.1415 52.5421C43.7062 52.0843 45.1332 51.1487 46.1795 49.7972C47.0167 48.7155 48.2242 48.0184 49.5794 47.8342C50.1547 47.756 50.7101 47.6147 51.2395 47.4196L58.4396 59.8908L52.6131 58.3296Z" fill="#84BD00"/>
<path d="M28.7423 21.3742L24.4879 25.6284C24.2315 25.8848 24.0874 26.2327 24.0874 26.5953C24.0874 26.958 24.2315 27.3058 24.4879 27.5622L32.4671 35.5415C32.7235 35.7979 33.0713 35.942 33.434 35.942C33.7966 35.942 34.1445 35.7979 34.4008 35.5415L45.5109 24.4314C46.0449 23.8975 46.0449 23.0316 45.5109 22.4977L41.2567 18.2433C41.0002 17.9869 40.6524 17.8428 40.2898 17.8428C39.9272 17.8428 39.5793 17.9869 39.3229 18.2433L33.4341 24.1322L30.6763 21.3743C30.4199 21.118 30.0721 20.9738 29.7094 20.9738C29.3465 20.9737 28.9987 21.1178 28.7423 21.3742ZM32.4669 27.0329C32.7233 27.2893 33.0712 27.4334 33.4338 27.4334C33.7965 27.4334 34.1443 27.2893 34.4007 27.0329L40.2895 21.1439L42.6101 23.4645L33.4338 32.6409L27.3886 26.5955L29.7092 24.275L32.4669 27.0329Z" fill="#84BD00"/>
<path d="M52.7758 26.8924C52.7758 23.2601 51.6872 19.7666 49.6279 16.7898C47.6169 13.8831 44.8234 11.6604 41.5496 10.3622C40.8473 10.084 40.0529 10.4273 39.7745 11.1293C39.4961 11.8314 39.8396 12.6261 40.5414 12.9045C46.3123 15.1928 50.0411 20.6835 50.0411 26.8924C50.0411 35.1862 43.2936 41.9338 34.9998 41.9338C26.706 41.9338 19.9584 35.1862 19.9584 26.8924C19.9584 20.6833 23.6873 15.1927 29.4581 12.9044C30.1602 12.626 30.5036 11.8312 30.2252 11.1292C29.9468 10.4272 29.152 10.0837 28.4501 10.3621C25.1761 11.6604 22.3827 13.883 20.3717 16.7897C18.3122 19.7665 17.2236 23.2599 17.2236 26.8923C17.2236 36.694 25.198 44.6684 34.9998 44.6684C44.8016 44.6685 52.7758 36.6942 52.7758 26.8924Z" fill="#84BD00"/>
<path d="M34.9995 11.8505C35.3591 11.8505 35.7119 11.7056 35.9661 11.4499C36.2204 11.1955 36.3669 10.8441 36.3669 10.4831C36.3669 10.1235 36.2206 9.77071 35.9661 9.51637C35.7119 9.26203 35.3591 9.11572 34.9995 9.11572C34.6399 9.11572 34.2871 9.26203 34.0327 9.51637C33.7784 9.77071 33.6321 10.1235 33.6321 10.4831C33.6321 10.8441 33.7784 11.1955 34.0327 11.4499C34.2871 11.7056 34.6399 11.8505 34.9995 11.8505Z" fill="#84BD00"/>
</g>
<defs>
<clipPath id="clip0">
<rect width="70" height="70" fill="white"/>
</clipPath>
</defs>
</svg>
