<?xml version="1.0" encoding="utf-8"?>
<!-- Generator: Adobe Illustrator 25.4.1, SVG Export Plug-In . SVG Version: 6.00 Build 0)  -->
<svg version="1.1" id="Capa_1" xmlns="http://www.w3.org/2000/svg" xmlns:xlink="http://www.w3.org/1999/xlink" x="0px" y="0px"
	 viewBox="0 0 119 44" style="enable-background:new 0 0 119 44;" xml:space="preserve">
<style type="text/css">
	.st0{fill-rule:evenodd;clip-rule:evenodd;fill:#0043A5;}
	.st1{fill:#0043A5;}
	.st2{fill:#34A853;}
	.st3{fill:#FBBC04;}
	.st4{fill:#4285F4;}
	.st5{fill:#1A73E8;}
	.st6{fill:#EA4335;}
</style>
<path class="st0" d="M67.8,23.6l3.1-1.2c-0.2-0.4-0.7-0.7-1.3-0.7C68.8,21.6,67.8,22.3,67.8,23.6z M71.4,24.8l1.2,0.8
	c-0.4,0.5-1.3,1.5-2.9,1.5c-2,0-3.4-1.5-3.4-3.3c0-2,1.4-3.3,3.2-3.3c1.8,0,2.7,1.4,2.9,2.1l0.2,0.4L68,24.7c0.4,0.7,0.9,1,1.7,1
	C70.5,25.7,71,25.3,71.4,24.8z M63.9,26.8h1.5V17h-1.5V26.8z M61.5,23.7c0-1.2-0.8-2-1.8-2c-1,0-1.9,0.9-1.9,2c0,1.2,0.9,2,1.9,2
	C60.7,25.7,61.5,24.8,61.5,23.7z M62.8,20.5v6c0,2.5-1.5,3.5-3.3,3.5c-1.7,0-2.7-1.1-3.1-2l1.3-0.5c0.2,0.5,0.8,1.2,1.7,1.2
	c1.1,0,1.8-0.7,1.8-1.9v-0.5h-0.1c-0.3,0.4-1,0.8-1.8,0.8c-1.7,0-3.3-1.4-3.3-3.3c0-1.9,1.6-3.3,3.3-3.3c0.8,0,1.5,0.4,1.8,0.7h0.1
	v-0.5C61.4,20.5,62.8,20.5,62.8,20.5z M46.3,23.7c0-1.2-0.9-2-1.9-2c-1,0-1.9,0.8-1.9,2c0,1.2,0.9,2,1.9,2
	C45.4,25.7,46.3,24.8,46.3,23.7z M47.8,23.7c0,1.9-1.5,3.3-3.4,3.3c-1.9,0-3.4-1.4-3.4-3.3c0-1.9,1.5-3.3,3.4-3.3
	C46.3,20.3,47.8,21.7,47.8,23.7z M53.9,23.7c0-1.2-0.9-2-1.9-2c-1,0-1.9,0.8-1.9,2c0,1.2,0.9,2,1.9,2C53,25.7,53.9,24.8,53.9,23.7z
	 M55.4,23.7c0,1.9-1.5,3.3-3.4,3.3c-1.9,0-3.4-1.4-3.4-3.3c0-1.9,1.5-3.3,3.4-3.3C53.9,20.3,55.4,21.7,55.4,23.7z M35.2,27
	c-2.9,0-5.4-2.3-5.4-5.2c0-2.8,2.5-5.2,5.4-5.2c1.6,0,2.8,0.6,3.7,1.4l-1,1c-0.6-0.6-1.5-1-2.6-1c-2.2,0-3.8,1.7-3.8,3.7
	s1.7,3.7,3.8,3.7c1.4,0,2.2-0.5,2.7-1c0.4-0.4,0.7-1,0.8-1.8h-3.5v-1.4h4.9c0.1,0.3,0.1,0.6,0.1,0.9c0,1.1-0.3,2.4-1.3,3.3
	C38,26.5,36.8,27,35.2,27z"/>
<path class="st1" d="M76.2,26.7V18h1.2l3.1,5.3h0.1l3.1-5.3h1.2v8.7h-1.2v-5.1l0.1-1.5h-0.1l-2.8,4.8h-0.7l-2.8-4.8h-0.1l0.1,1.5
	v5.1H76.2z"/>
<path class="st1" d="M88.4,26.9c-0.7,0-1.2-0.2-1.6-0.5c-0.4-0.4-0.7-0.8-0.7-1.4c0-0.6,0.3-1.1,0.8-1.5c0.5-0.4,1.2-0.6,1.9-0.6
	c0.7,0,1.2,0.1,1.7,0.4V23c0-0.4-0.2-0.8-0.5-1c-0.3-0.3-0.7-0.4-1.1-0.4c-0.3,0-0.6,0.1-0.9,0.2c-0.3,0.2-0.5,0.4-0.6,0.6L86.3,22
	c0.1-0.4,0.4-0.7,0.8-1c0.4-0.3,1-0.5,1.7-0.5c0.8,0,1.4,0.2,2,0.7c0.5,0.4,0.8,1.1,0.8,1.9v3.6h-1.1v-0.8h-0.1
	C89.9,26.5,89.3,26.9,88.4,26.9z M88.6,25.9c0.5,0,0.9-0.2,1.3-0.5c0.4-0.3,0.6-0.8,0.6-1.2c-0.3-0.3-0.8-0.4-1.5-0.4
	c-0.6,0-1,0.1-1.3,0.4c-0.3,0.2-0.4,0.5-0.4,0.8c0,0.3,0.1,0.5,0.4,0.7C87.9,25.8,88.2,25.9,88.6,25.9z"/>
<path class="st1" d="M96,26.9c-0.5,0-0.9-0.1-1.3-0.3s-0.7-0.4-0.8-0.7h-0.1l0.1,0.8v2.6h-1.2v-8.5h1.1v0.8H94
	c0.2-0.3,0.5-0.5,0.8-0.7s0.8-0.3,1.3-0.3c0.8,0,1.5,0.3,2.1,0.9c0.6,0.6,0.9,1.4,0.9,2.3c0,0.9-0.3,1.6-0.9,2.3
	C97.5,26.6,96.8,26.9,96,26.9z M95.9,25.9c0.5,0,1-0.2,1.4-0.6c0.4-0.4,0.6-0.9,0.6-1.6s-0.2-1.2-0.6-1.6c-0.4-0.4-0.8-0.6-1.4-0.6
	c-0.5,0-1,0.2-1.4,0.6c-0.4,0.4-0.6,0.9-0.6,1.6c0,0.7,0.2,1.2,0.6,1.6C94.9,25.7,95.3,25.9,95.9,25.9z"/>
<path class="st1" d="M102.3,26.9c-0.7,0-1.3-0.2-1.7-0.5c-0.4-0.3-0.8-0.7-1-1.2l1-0.4c0.3,0.7,0.9,1.1,1.7,1.1
	c0.4,0,0.7-0.1,0.9-0.2c0.2-0.2,0.3-0.4,0.3-0.6c0-0.4-0.3-0.6-0.8-0.8l-1.2-0.3c-0.4-0.1-0.8-0.3-1.1-0.6c-0.4-0.3-0.5-0.6-0.5-1.1
	c0-0.5,0.2-0.9,0.7-1.3c0.5-0.3,1.1-0.5,1.7-0.5c0.5,0,1,0.1,1.5,0.4c0.4,0.2,0.7,0.6,0.9,1l-1,0.4c-0.2-0.5-0.7-0.8-1.4-0.8
	c-0.3,0-0.6,0.1-0.9,0.2c-0.2,0.1-0.4,0.3-0.4,0.6c0,0.3,0.3,0.6,0.8,0.7l1.2,0.3c0.6,0.1,1,0.4,1.3,0.7c0.3,0.3,0.4,0.7,0.4,1.1
	c0,0.5-0.2,1-0.7,1.3C103.6,26.7,103,26.9,102.3,26.9z"/>
<path class="st2" d="M17.5,25.9c0.5,0.6,1,1.4,1.3,1.9c0.3,0.6,0.5,1,0.7,1.8c0.1,0.4,0.3,0.5,0.6,0.5c0.3,0,0.5-0.2,0.6-0.5
	c0.2-0.7,0.4-1.2,0.7-1.7c0.6-1,1.3-1.8,1.9-2.6c0.2-0.2,1.4-1.6,1.9-2.7c0,0,0.7-1.2,0.7-2.8c0-1.5-0.6-2.6-0.6-2.6l-1.9,0.5
	l-1.1,2.9l-0.3,0.4l-0.1,0.1l-0.1,0.1l-0.1,0.1l-0.2,0.2l-1,0.8l-2.5,1.4L17.5,25.9z"/>
<path class="st3" d="M14.9,22.2c0.6,1.4,1.8,2.6,2.6,3.6l4.3-4.9c0,0-0.6,0.8-1.7,0.8c-1.2,0-2.2-0.9-2.2-2.1c0-0.8,0.5-1.4,0.5-1.4
	L15.5,19L14.9,22.2z"/>
<path class="st4" d="M21.9,14.3c1.4,0.4,2.6,1.4,3.4,2.8L21.8,21c0,0,0.5-0.6,0.5-1.4c0-1.2-1.1-2.1-2.2-2.1c-1.1,0-1.7,0.8-1.7,0.8
	v-2.5L21.9,14.3z"/>
<path class="st5" d="M15.7,16c0.9-1,2.3-2,4.4-2c1,0,1.8,0.3,1.8,0.3l-3.4,4H16L15.7,16z"/>
<path class="st6" d="M14.9,22.2c0,0-0.6-1.1-0.6-2.6c0-1.5,0.6-2.8,1.4-3.6l2.7,2.2L14.9,22.2z"/>
</svg>
