<?xml version="1.0" encoding="utf-8"?>
<!-- Generator: Adobe Illustrator 25.4.1, SVG Export Plug-In . SVG Version: 6.00 Build 0)  -->
<svg version="1.1" id="Capa_1" xmlns="http://www.w3.org/2000/svg" xmlns:xlink="http://www.w3.org/1999/xlink" x="0px" y="0px"
	 viewBox="0 0 80 44" style="enable-background:new 0 0 80 44;" xml:space="preserve">
<style type="text/css">
	.st0{fill:#0043A5;}
	.st1{fill:#FFFFFF;}
</style>
<g>
	<path class="st0" d="M60.9,25c0.2-0.8,0.8-1.4,1.8-1.4c0.9,0,1.5,0.5,1.7,1.4H60.9z M62.7,29.3c1.5,0,2.5-0.7,3-1.3
		c0.2-0.2,0.1-0.4,0-0.5l-0.8-0.6c-0.2-0.1-0.3-0.1-0.4,0c-0.2,0.2-0.7,0.7-1.7,0.7c-0.9,0-1.7-0.5-1.9-1.4h5c0.2,0,0.3-0.1,0.3-0.3
		v-0.3c0-2-1.2-3.6-3.5-3.6c-2,0-3.7,1.5-3.7,3.7S60.6,29.3,62.7,29.3z M52.5,29.2h5.7c0.2,0,0.3-0.1,0.3-0.3v-0.9
		c0-0.2-0.1-0.3-0.3-0.3h-3.6l3.5-3.7c0.1-0.2,0.2-0.3,0.2-0.5v-0.9c0-0.2-0.1-0.3-0.3-0.3h-5.4c-0.2,0-0.3,0.1-0.3,0.3l0,0.9
		c0,0.2,0.1,0.3,0.3,0.3h3.3l-3.5,3.8c-0.1,0.2-0.2,0.3-0.2,0.5v0.9C52.2,29,52.3,29.2,52.5,29.2L52.5,29.2z M47.3,27.6
		c-1.1,0-2-0.9-2-2c0-1.1,0.8-2,2-2c1.1,0,1.9,0.9,1.9,2S48.4,27.6,47.3,27.6L47.3,27.6z M46.9,29.3c1.1,0,1.9-0.4,2.2-1.1v0.6
		c0,0.2,0.1,0.3,0.3,0.3h1.2c0.2,0,0.3-0.1,0.3-0.3v-6.4c0-0.2-0.1-0.3-0.3-0.3h-1.2c-0.2,0-0.3,0.1-0.3,0.3v0.6
		C48.8,22.4,48,22,47,22c-2,0-3.6,1.5-3.6,3.7S45,29.3,46.9,29.3z M38.2,22.1h-1.3c-0.2,0-0.3,0.1-0.4,0.3l-1.4,4.4l-1.3-4.5
		c0-0.2-0.2-0.3-0.4-0.3h-1.2c-0.3,0-0.4,0.2-0.3,0.4l2.1,6.3c0.1,0.2,0.2,0.3,0.4,0.3h1.4c0.2,0,0.4-0.1,0.4-0.3l1.4-4.4l1.4,4.4
		c0.1,0.2,0.2,0.3,0.4,0.3h1.3c0.2,0,0.3-0.1,0.4-0.3l2.1-6.3c0.1-0.3,0-0.4-0.3-0.4h-1.2c-0.2,0-0.3,0.1-0.4,0.3L40,26.9l-1.4-4.4
		C38.5,22.2,38.3,22.1,38.2,22.1z"/>
	<path class="st1" d="M22.6,27.1h-1.5c-0.1-0.4-0.2-0.7-0.5-0.9c-0.3-0.3-0.6-0.4-0.9-0.5c-0.4-0.1-0.7,0-1.1,0.1
		c-0.3,0.1-0.6,0.4-0.8,0.7v0c-0.5-0.3-1-0.6-1.5-1.1c-0.5-0.5-0.8-1-0.9-1.3c0.3-0.1,0.6-0.3,0.9-0.5c0.3-0.3,0.5-0.8,0.5-1.2v-1.1
		c0-1.3,0.4-2.5,1.2-3.6c1.1-1.5,2.8-2.3,4.6-2.3c1.2,0,2.3,0.3,3.2,1c1,0.6,1.7,1.5,2.1,2.6c0.4,1.1,0.6,2.2,0.3,3.4
		c-0.2,1.1-0.8,2.2-1.6,3C25.6,26.5,24.2,27.1,22.6,27.1z"/>
	<path class="st1" d="M19.3,30c-0.7,0-1.3-0.3-1.8-0.7c-0.5-0.5-0.8-1.1-0.8-1.7c-0.5-0.3-1-0.7-1.5-1.2c-0.2-0.2-1.7-1.8-1.4-3
		c0.1-0.2,0.2-0.4,0.4-0.5c0.2-0.1,0.4-0.2,0.6-0.2c0.4,0,0.4-0.2,0.4-0.4v-1.1c0-1.6,0.6-3.2,1.6-4.5c1.4-1.8,3.5-2.8,5.7-2.8
		c1.9,0,3.8,0.8,5.1,2.1c1.4,1.4,2.1,3.2,2.1,5.1c0,1-0.2,1.9-0.5,2.8c-0.4,0.9-0.9,1.7-1.6,2.4c-0.2,0.2-0.5,0.5-0.8,0.7
		c0.1,0.4,0,0.9-0.1,1.3c-0.1,0.3-0.3,0.7-0.6,0.9c-0.3,0.3-0.6,0.5-0.9,0.6C25,30,24.7,30,24.4,30c-0.5,0-1-0.1-1.4-0.4
		c-0.4-0.3-0.7-0.6-0.9-1.1h-0.5c-0.2,0.4-0.5,0.8-0.9,1.1S19.8,30,19.3,30z"/>
	<path d="M29.1,21.3c0-0.9-0.2-1.7-0.5-2.5c-0.3-0.8-0.8-1.5-1.4-2.1c-1.2-1.2-2.9-1.9-4.6-1.9c-2,0-3.9,0.9-5.1,2.5
		c-0.9,1.2-1.4,2.6-1.4,4.1v1.1c0,0.6-0.4,1.1-1.2,1.1c-0.1,0-0.1,0-0.2,0.1c0,0-0.1,0.1-0.1,0.1c-0.1,0.5,0.4,1.5,1.2,2.3
		c0.5,0.5,1.1,0.9,1.7,1.2c0,0.3,0,0.5,0,0.8c0.1,0.3,0.2,0.5,0.4,0.7c0.2,0.2,0.4,0.4,0.6,0.5c0.2,0.1,0.5,0.2,0.8,0.2
		c0.4,0,0.8-0.1,1.2-0.4c0.3-0.3,0.5-0.6,0.6-1h1.5c0.2,1,1.3,1.7,2.4,1.3c0.2-0.1,0.5-0.2,0.7-0.4c0.2-0.2,0.3-0.4,0.4-0.6
		c0.2-0.5,0.1-0.9,0-1.3c0.4-0.3,0.8-0.6,1.1-0.9c0.6-0.6,1.1-1.3,1.4-2.1C29,23,29.1,22.1,29.1,21.3z M22.6,27.1h-1.5
		c-0.1-0.4-0.2-0.7-0.5-0.9c-0.3-0.3-0.6-0.4-0.9-0.5c-0.4-0.1-0.7,0-1.1,0.1c-0.3,0.1-0.6,0.4-0.8,0.7v0c-0.5-0.3-1-0.6-1.5-1.1
		c-0.5-0.5-0.8-1-0.9-1.3c0.3-0.1,0.6-0.3,0.9-0.5c0.3-0.3,0.5-0.8,0.5-1.2v-1.1c0-1.3,0.4-2.5,1.2-3.6c1.1-1.5,2.8-2.3,4.6-2.3
		c1.2,0,2.3,0.3,3.2,1c1,0.6,1.7,1.5,2.1,2.6c0.4,1.1,0.6,2.2,0.3,3.4c-0.2,1.1-0.8,2.2-1.6,3C25.6,26.5,24.2,27.1,22.6,27.1
		L22.6,27.1z"/>
	<path d="M25.5,20.5c0.4,0,0.7-0.3,0.7-0.7c0-0.4-0.3-0.7-0.7-0.7c-0.4,0-0.7,0.3-0.7,0.7C24.8,20.2,25.1,20.5,25.5,20.5z"/>
	<path d="M21.1,20.5c0.4,0,0.7-0.3,0.7-0.7c0-0.4-0.3-0.7-0.7-0.7c-0.4,0-0.7,0.3-0.7,0.7C20.4,20.2,20.7,20.5,21.1,20.5z"/>
	<path d="M21.4,22.2c0-0.1-0.1-0.1-0.1-0.2C21.2,22,21.1,22,21,22c-0.1,0-0.1,0-0.2,0c-0.1,0-0.1,0.1-0.1,0.1c0,0.1-0.1,0.1-0.1,0.2
		c0,0.1,0,0.1,0,0.2c0.2,0.5,0.6,0.9,1.1,1.2c0.5,0.3,1,0.5,1.6,0.5c0.6,0,1.1-0.2,1.6-0.5c0.5-0.3,0.8-0.7,1.1-1.2
		c0-0.1,0-0.1,0-0.2c0-0.1,0-0.1-0.1-0.2c0-0.1-0.1-0.1-0.1-0.1c-0.1,0-0.1,0-0.2,0h0c-0.1,0-0.1,0-0.2,0.1c-0.1,0-0.1,0.1-0.1,0.2
		c-0.2,0.4-0.5,0.7-0.8,0.9c-0.3,0.2-0.8,0.3-1.2,0.3c-0.4,0-0.8-0.1-1.2-0.3C21.8,22.9,21.5,22.6,21.4,22.2L21.4,22.2z"/>
</g>
</svg>
