<svg width="70" height="70" viewBox="0 0 70 70" fill="none" xmlns="http://www.w3.org/2000/svg">
<g clip-path="url(#clip0)">
<path d="M63.2138 5.52106H50.9893C50.423 5.52106 49.9639 5.98016 49.9639 6.54645C49.9639 7.11274 50.423 7.57184 50.9893 7.57184H63.2138C63.7801 7.57184 64.2392 7.11274 64.2392 6.54645C64.2392 5.98016 63.7801 5.52106 63.2138 5.52106Z" fill="#84BD00"/>
<path d="M63.2138 10.0866H50.9893C50.423 10.0866 49.9639 10.5457 49.9639 11.112C49.9639 11.6783 50.423 12.1374 50.9893 12.1374H63.2138C63.7801 12.1374 64.2392 11.6783 64.2392 11.112C64.2392 10.5457 63.7801 10.0866 63.2138 10.0866Z" fill="#84BD00"/>
<path d="M63.7524 7.56836e-05H56.7048C56.1385 7.56836e-05 55.6794 0.459177 55.6794 1.02547C55.6794 1.59176 56.1385 2.05086 56.7048 2.05086H63.7524C65.878 2.05086 67.6073 3.78021 67.6073 5.90578V11.7687C67.6073 13.8943 65.878 15.6237 63.7524 15.6237H55.8786C55.0801 15.6237 54.3229 16.0093 53.8532 16.6551L51.0903 20.4539V17.9532C51.0903 16.7856 50.3056 15.7855 49.1819 15.5213C47.4343 15.1102 46.2139 13.5672 46.2139 11.7687V5.90564C46.2139 3.78007 47.9432 2.05072 50.0688 2.05072H51.9115C52.4778 2.05072 52.9369 1.59162 52.9369 1.02533C52.9369 0.45904 52.4778 -6.10352e-05 51.9115 -6.10352e-05H50.0688C46.8124 -6.10352e-05 44.1632 2.64914 44.1632 5.9055V11.7684C44.1632 14.5232 46.0339 16.8872 48.7124 17.5172C48.902 17.5617 49.0397 17.7449 49.0397 17.9529V22.2402C49.0397 23.6603 50.8627 24.2532 51.6979 23.1046L55.5115 17.8609C55.5967 17.7438 55.7339 17.674 55.8786 17.674H63.7524C67.0088 17.674 69.658 15.0246 69.658 11.7683V5.90564C69.658 2.64927 67.0088 7.56836e-05 63.7524 7.56836e-05Z" fill="#84BD00"/>
<path d="M36.4497 55.7643H30.5421C29.6224 55.7643 28.8743 56.5124 28.8743 57.4321V59.8407C28.8743 60.7604 29.6225 61.5085 30.5421 61.5085H36.4497C37.3694 61.5085 38.1175 60.7604 38.1175 59.8407V57.4321C38.1175 56.5124 37.3693 55.7643 36.4497 55.7643ZM36.0669 59.4577H30.9249V57.8149H36.0669V59.4577Z" fill="#84BD00"/>
<path d="M42.9838 44.2086C40.1453 42.9097 34.9836 42.0829 32.1508 41.7047C32.1486 41.7044 32.1461 41.7039 32.1439 41.7036C32.1427 41.7035 32.1415 41.7035 32.1403 41.7033C32.1397 41.7032 32.1392 41.7032 32.1386 41.7031C31.7867 41.6562 31.5213 41.3358 31.5213 40.9579V37.0642C33.4901 35.6039 35.7622 33.0932 35.8035 29.275H38.7293C41.1932 29.275 43.1873 27.281 43.1871 24.8168L43.1869 21.7513C43.1866 11.4239 34.7841 3.02203 24.4565 3.02203C14.104 3.02203 5.72523 11.4007 5.72619 21.7543L5.7266 24.8171C5.72687 26.922 7.19414 28.6888 9.15906 29.1535V31.1161C9.15906 32.7354 10.4765 34.053 12.0959 34.053H14.5183C15.3403 35.3452 16.4049 36.3405 17.3921 37.0714V40.9582C17.3921 41.3361 17.1268 41.6564 16.775 41.7033C13.9448 42.0808 8.77228 42.9081 5.92977 44.2088C2.53545 45.762 0.34207 49.227 0.34207 53.0364V56.3279C0.34207 56.8941 0.801172 57.3532 1.36746 57.3532C1.93375 57.3532 2.39285 56.8941 2.39285 56.3279V53.0364C2.39285 50.0269 4.11605 47.2939 6.78303 46.0735C8.14119 45.452 10.1791 44.938 12.1472 44.5431L15.0687 49.881C15.7474 51.1211 17.0588 51.8794 18.4468 51.8794C18.936 51.8794 18.8485 51.848 23.4317 51.1855V67.9495H9.47516V63.3176C9.47516 62.7513 9.01605 62.2922 8.44977 62.2922C7.88348 62.2922 7.42437 62.7513 7.42437 63.3176V67.9495H3.41688C2.85209 67.9495 2.39258 67.4646 2.39258 66.8685V61.1468C2.39258 60.5805 1.93348 60.1214 1.36719 60.1214C0.800898 60.1214 0.341797 60.5805 0.341797 61.1468V66.8685C0.341934 68.5951 1.72129 70 3.41688 70H45.4966C47.1922 70 48.5715 68.5951 48.5715 66.8683V53.0361C48.5715 49.2268 46.3781 45.7617 42.9838 44.2086ZM32.3531 43.8021C32.9793 43.8895 33.768 44.0066 34.6377 44.1526L32.0414 48.8965C31.6827 49.5518 30.9455 49.9193 30.206 49.8099L26.669 49.2883L32.3531 43.8021ZM35.7715 19.3389C35.493 16.5955 34.0592 15.3855 32.053 13.584C30.5118 12.1972 28.1355 12.2776 26.6428 13.767C25.3474 15.0597 23.6262 15.7717 21.7965 15.7717H17.4062C15.8557 15.7717 13.698 17.0313 13.1924 19.339H11.4405C12.568 13.3394 17.7898 8.74139 24.1139 8.58102C30.8342 8.41053 36.3159 13.2267 37.4712 19.339H35.7715V19.3389ZM11.2174 21.3895H13.0848L13.0949 27.2244H11.2104C11.2127 21.5675 11.2029 21.8464 11.2174 21.3895ZM37.704 27.2244H35.809L35.8191 21.3895H37.6957C37.7103 21.8453 37.7005 21.5638 37.704 27.2244ZM7.77725 24.8168L7.77684 21.7541C7.77588 12.5352 15.2363 5.07268 24.4565 5.07268C33.6535 5.07268 41.1359 12.5547 41.1365 21.7515L41.1368 24.8171C41.1369 25.783 40.5691 26.6129 39.7547 26.9966L39.7543 21.8226C39.7538 13.2342 32.6711 6.31094 24.062 6.53092C15.9254 6.73709 9.15824 13.3651 9.15906 21.825L9.15975 26.995C8.3434 26.6092 7.77738 25.7779 7.77725 24.8168ZM12.0958 32.0022C11.6071 32.0022 11.2096 31.6046 11.2096 31.116V29.275H13.1003C13.1112 30.272 13.2751 31.179 13.545 32.0022H12.0958ZM15.3859 30.99C15.2333 30.4202 15.149 29.8126 15.149 29.1665L15.1337 20.3641C15.1337 18.6952 16.6131 17.8221 17.4062 17.8221H21.7965C24.1732 17.8221 26.4087 16.8973 28.0913 15.2183C28.8125 14.4985 29.9504 14.4504 30.6813 15.108C32.7164 16.9341 33.7753 17.7618 33.7704 20.3622L33.755 29.1681C33.755 32.1083 32.0176 34.2512 29.9703 35.6561C29.9346 35.6774 29.9003 35.7008 29.8676 35.7263C27.9126 37.0379 25.6992 37.6837 24.452 37.7129C23.2954 37.6857 21.3076 37.128 19.4656 36.0008H21.3883C22.9895 36.0008 24.2922 34.6981 24.2922 33.0969C24.2922 31.4956 22.9895 30.193 21.3883 30.193H17.3785C16.607 30.1931 15.9065 30.4976 15.3859 30.99ZM17.3785 33.9503C16.9032 33.9503 16.5252 33.559 16.5252 33.097C16.5252 32.6264 16.908 32.2438 17.3785 32.2438H21.3883C21.8589 32.2438 22.2415 32.6266 22.2415 33.097C22.2415 33.5675 21.8587 33.9503 21.3883 33.9503H17.3785ZM18.7027 49.8098C17.9632 49.9193 17.2259 49.5517 16.8673 48.8964L14.2714 44.1533C15.1409 44.0075 15.9296 43.8901 16.5561 43.8026L22.2396 49.2882L18.7027 49.8098ZM18.6222 42.9468C19.1298 42.4353 19.4426 41.7286 19.4426 40.9581V38.3346C21.3109 39.2838 23.1748 39.7405 24.4329 39.7638C24.4392 39.764 24.4456 39.764 24.452 39.764C24.4583 39.764 24.4647 39.764 24.4712 39.7638C25.7313 39.7405 27.5994 39.2824 29.471 38.3299V40.9581C29.471 41.7274 29.7828 42.4331 30.2891 42.9445L24.4545 48.5758L18.6222 42.9468ZM46.5209 66.8683C46.5209 67.4644 46.0614 67.9494 45.4966 67.9494H41.4889V63.3175C41.4889 62.7512 41.0298 62.2921 40.4636 62.2921C39.8973 62.2921 39.4382 62.7512 39.4382 63.3175V67.9494H25.4819V51.186C30.0587 51.8476 29.9729 51.8793 30.462 51.8793C31.8499 51.8793 33.1614 51.1208 33.8401 49.8809L36.762 44.542C38.7315 44.9369 40.7713 45.4513 42.1304 46.0733C44.7974 47.2936 46.5206 50.0266 46.5206 53.0361V66.8683H46.5209Z" fill="#84BD00"/>
</g>
<defs>
<clipPath id="clip0">
<rect width="70" height="70" fill="white"/>
</clipPath>
</defs>
</svg>
